<svg xmlns="http://www.w3.org/2000/svg" width="40" height="40" viewBox="0 0 40 40">
  <g id="Group_328" data-name="Group 328" transform="translate(-162 -77)">
    <g id="vuesax_outline_notification-bing" data-name="vuesax/outline/notification-bing" transform="translate(54 -111)">
      <g id="notification-bing" transform="translate(108 188)">
        <path id="Vector" d="M1.255,8.083A1.264,1.264,0,0,1,0,6.828V1.255A1.264,1.264,0,0,1,1.255,0,1.264,1.264,0,0,1,2.51,1.255V6.828A1.253,1.253,0,0,1,1.255,8.083Z" transform="translate(18.745 9.474)" fill="#707070"/>
        <path id="Vector-2" data-name="Vector" d="M16.1,31.98A39.7,39.7,0,0,1,3.445,29.922,4.956,4.956,0,0,1,.282,26.96a5.055,5.055,0,0,1,.483-4.318l2.115-3.548a7.574,7.574,0,0,0,.882-3.18V12.4a12.338,12.338,0,1,1,24.675,0v3.514a7.643,7.643,0,0,0,.882,3.18l2.115,3.548a4.982,4.982,0,0,1-2.681,7.28A39.238,39.238,0,0,1,16.1,31.98Zm0-29.453a9.874,9.874,0,0,0-9.84,9.89v3.514A9.979,9.979,0,0,1,5.027,20.4L2.913,23.964a2.478,2.478,0,0,0-.283,2.159,2.464,2.464,0,0,0,1.615,1.439,37.655,37.655,0,0,0,23.743,0A2.375,2.375,0,0,0,29.5,26.089a2.455,2.455,0,0,0-.2-2.125l-2.115-3.548a9.979,9.979,0,0,1-1.232-4.468V12.434A9.9,9.9,0,0,0,16.1,2.527Z" transform="translate(3.934 2.075)" fill="#707070"/>
        <path id="Vector-3" data-name="Vector" d="M6.828,6.828A6.873,6.873,0,0,1,2.008,4.82,6.873,6.873,0,0,1,0,0H2.51A4.336,4.336,0,0,0,3.782,3.046,4.336,4.336,0,0,0,6.828,4.318,4.328,4.328,0,0,0,11.145,0h2.51A6.835,6.835,0,0,1,6.828,6.828Z" transform="translate(13.172 31.331)" fill="#707070"/>
        <path id="Vector-4" data-name="Vector" d="M0,0H40V40H0Z" fill="none" opacity="0"/>
      </g>
    </g>
  </g>
</svg>
